HIERARCHY
ROOT Hips
{
	OFFSET -14.64140 90.27770 -84.91600
	CHANNELS 6 Xposition Yposition Zposition Zrotation Xrotation Yrotation
	JOINT Spine
	{
		OFFSET 0.00000 13.20850 -1.60436
		CHANNELS 3 Zrotation Xrotation Yrotation
		JOINT Spine1
		{
			OFFSET 0.00000 8.61716 0.00000
			CHANNELS 3 Zrotation Xrotation Yrotation
			JOINT Spine2
			{
				OFFSET 0.00000 8.61717 0.00000
				CHANNELS 3 Zrotation Xrotation Yrotation
				JOINT Spine3
				{
					OFFSET 0.00000 8.61717 0.00000
					CHANNELS 3 Zrotation Xrotation Yrotation
					JOINT Neck
					{
						OFFSET 0.00000 11.07920 1.10792
						CHANNELS 3 Zrotation Xrotation Yrotation
						JOINT Neck1
						{
							OFFSET 0.00000 7.08032 0.00000
							CHANNELS 3 Zrotation Xrotation Yrotation
							JOINT Head
							{
								OFFSET 0.00000 7.08031 0.00000
								CHANNELS 3 Zrotation Xrotation Yrotation
								End site
								{
									OFFSET 0.00000 0.00000 0.00000
								}
							}
						}
					}
					JOINT RightShoulder
					{
						OFFSET -0.01000 7.91373 5.19711
						CHANNELS 3 Zrotation Xrotation Yrotation
						JOINT RightArm
						{
							OFFSET -18.41580 0.00000 0.00000
							CHANNELS 3 Zrotation Xrotation Yrotation
							JOINT RightForeArm
							{
								OFFSET -29.11090 0.00000 0.00000
								CHANNELS 3 Zrotation Xrotation Yrotation
								JOINT RightHand
								{
									OFFSET -24.65040 0.00000 0.00000
									CHANNELS 3 Zrotation Xrotation Yrotation
									JOINT RightHandThumb1
									{
										OFFSET -5.35114 -0.85590 3.97906
										CHANNELS 3 Zrotation Xrotation Yrotation
										JOINT RightHandThumb2
										{
											OFFSET -4.52789 0.00000 0.00000
											CHANNELS 3 Zrotation Xrotation Yrotation
											JOINT RightHandThumb3
											{
												OFFSET -2.46976 0.00000 0.00000
												CHANNELS 3 Zrotation Xrotation Yrotation
												End site
												{
													OFFSET 0.00000 0.00000 0.00000
												}
											}
										}
									}
									JOINT RightHandIndex1
									{
										OFFSET -14.26970 0.00000 2.88139
										CHANNELS 3 Zrotation Xrotation Yrotation
										JOINT RightHandIndex2
										{
											OFFSET -5.48836 0.00000 0.00000
											CHANNELS 3 Zrotation Xrotation Yrotation
											JOINT RightHandIndex3
											{
												OFFSET -3.01859 0.00000 0.00000
												CHANNELS 3 Zrotation Xrotation Yrotation
												End site
												{
													OFFSET 0.00000 0.00000 0.00000
												}
											}
										}
									}
									JOINT RightHandMiddle1
									{
										OFFSET -14.26970 0.00000 -0.09147
										CHANNELS 3 Zrotation Xrotation Yrotation
										JOINT RightHandMiddle2
										{
											OFFSET -6.17441 0.00000 0.00000
											CHANNELS 3 Zrotation Xrotation Yrotation
											JOINT RightHandMiddle3
											{
												OFFSET -3.56743 0.00000 0.00000
												CHANNELS 3 Zrotation Xrotation Yrotation
												End site
												{
													OFFSET 0.00000 0.00000 0.00000
												}
											}
										}
									}
									JOINT RightHandRing1
									{
										OFFSET -12.69180 0.00000 -3.06433
										CHANNELS 3 Zrotation Xrotation Yrotation
										JOINT RightHandRing2
										{
											OFFSET -5.62556 0.00000 0.00000
											CHANNELS 3 Zrotation Xrotation Yrotation
											JOINT RightHandRing3
											{
												OFFSET -3.56744 0.00000 0.00000
												CHANNELS 3 Zrotation Xrotation Yrotation
												End site
												{
													OFFSET 0.00000 0.00000 0.00000
												}
											}
										}
									}
									JOINT RightHandPinky1
									{
										OFFSET -11.11390 0.00000 -6.03719
										CHANNELS 3 Zrotation Xrotation Yrotation
										JOINT RightHandPinky2
										{
											OFFSET -4.52789 0.00000 0.00000
											CHANNELS 3 Zrotation Xrotation Yrotation
											JOINT RightHandPinky3
											{
												OFFSET -2.46976 0.00000 0.00000
												CHANNELS 3 Zrotation Xrotation Yrotation
												End site
												{
													OFFSET 0.00000 0.00000 0.00000
												}
											}
										}
									}
								}
							}
						}
					}
					JOINT LeftShoulder
					{
						OFFSET 0.01000 7.91373 5.19711
						CHANNELS 3 Zrotation Xrotation Yrotation
						JOINT LeftArm
						{
							OFFSET 18.41580 0.00000 0.00000
							CHANNELS 3 Zrotation Xrotation Yrotation
							JOINT LeftForeArm
							{
								OFFSET 29.11090 0.00000 0.00000
								CHANNELS 3 Zrotation Xrotation Yrotation
								JOINT LeftHand
								{
									OFFSET 24.65040 0.00000 0.00000
									CHANNELS 3 Zrotation Xrotation Yrotation
									JOINT LeftHandThumb1
									{
										OFFSET 5.35114 -0.85590 3.97906
										CHANNELS 3 Zrotation Xrotation Yrotation
										JOINT LeftHandThumb2
										{
											OFFSET 4.52789 0.00000 0.00000
											CHANNELS 3 Zrotation Xrotation Yrotation
											JOINT LeftHandThumb3
											{
												OFFSET 2.46977 0.00000 0.00000
												CHANNELS 3 Zrotation Xrotation Yrotation
												End site
												{
													OFFSET 0.00000 0.00000 0.00000
												}
											}
										}
									}
									JOINT LeftHandIndex1
									{
										OFFSET 14.26970 0.00000 2.88139
										CHANNELS 3 Zrotation Xrotation Yrotation
										JOINT LeftHandIndex2
										{
											OFFSET 5.48836 0.00000 0.00000
											CHANNELS 3 Zrotation Xrotation Yrotation
											JOINT LeftHandIndex3
											{
												OFFSET 3.01859 0.00000 0.00000
												CHANNELS 3 Zrotation Xrotation Yrotation
												End site
												{
													OFFSET 0.00000 0.00000 0.00000
												}
											}
										}
									}
									JOINT LeftHandMiddle1
									{
										OFFSET 14.26970 0.00000 -0.09147
										CHANNELS 3 Zrotation Xrotation Yrotation
										JOINT LeftHandMiddle2
										{
											OFFSET 6.17440 0.00000 0.00000
											CHANNELS 3 Zrotation Xrotation Yrotation
											JOINT LeftHandMiddle3
											{
												OFFSET 3.56744 0.00000 0.00000
												CHANNELS 3 Zrotation Xrotation Yrotation
												End site
												{
													OFFSET 0.00000 0.00000 0.00000
												}
											}
										}
									}
									JOINT LeftHandRing1
									{
										OFFSET 12.69180 0.00000 -3.06433
										CHANNELS 3 Zrotation Xrotation Yrotation
										JOINT LeftHandRing2
										{
											OFFSET 5.62556 0.00000 0.00000
											CHANNELS 3 Zrotation Xrotation Yrotation
											JOINT LeftHandRing3
											{
												OFFSET 3.56744 0.00000 0.00000
												CHANNELS 3 Zrotation Xrotation Yrotation
												End site
												{
													OFFSET 0.00000 0.00000 0.00000
												}
											}
										}
									}
									JOINT LeftHandPinky1
									{
										OFFSET 11.11390 0.00000 -6.03719
										CHANNELS 3 Zrotation Xrotation Yrotation
										JOINT LeftHandPinky2
										{
											OFFSET 4.52789 0.00000 0.00000
											CHANNELS 3 Zrotation Xrotation Yrotation
											JOINT LeftHandPinky3
											{
												OFFSET 2.46976 0.00000 0.00000
												CHANNELS 3 Zrotation Xrotation Yrotation
												End site
												{
													OFFSET 0.00000 0.00000 0.00000
												}
											}
										}
									}
								}
							}
						}
					}
					JOINT pCube4
					{
						OFFSET 0.00000 10.91090 1.10792
						CHANNELS 3 Zrotation Xrotation Yrotation
						End site
						{
							OFFSET 0.00000 0.00000 0.00000
						}
					}
				}
			}
		}
	}
	JOINT RightUpLeg
	{
		OFFSET -9.98441 0.00000 0.00000
		CHANNELS 3 Zrotation Xrotation Yrotation
		JOINT RightLeg
		{
			OFFSET 0.00000 -42.11790 0.00000
			CHANNELS 3 Zrotation Xrotation Yrotation
			JOINT RightFoot
			{
				OFFSET 0.00000 -45.00020 -0.00001
				CHANNELS 3 Zrotation Xrotation Yrotation
				JOINT RightForeFoot
				{
					OFFSET 0.00000 -3.74820 0.00000
					CHANNELS 3 Zrotation Xrotation Yrotation
					JOINT RightToeBase
					{
						OFFSET 0.00000 0.06325 14.43120
						CHANNELS 3 Zrotation Xrotation Yrotation
						End site
						{
							OFFSET 0.00000 0.00000 0.00000
						}
					}
				}
			}
		}
	}
	JOINT LeftUpLeg
	{
		OFFSET 9.98441 0.00000 0.00000
		CHANNELS 3 Zrotation Xrotation Yrotation
		JOINT LeftLeg
		{
			OFFSET 0.00000 -42.11800 0.00000
			CHANNELS 3 Zrotation Xrotation Yrotation
			JOINT LeftFoot
			{
				OFFSET 0.00000 -45.00070 0.00000
				CHANNELS 3 Zrotation Xrotation Yrotation
				JOINT LeftForeFoot
				{
					OFFSET 0.00000 -3.74824 0.00000
					CHANNELS 3 Zrotation Xrotation Yrotation
					JOINT LeftToeBase
					{
						OFFSET 0.00000 0.06325 14.43110
						CHANNELS 3 Zrotation Xrotation Yrotation
						End site
						{
							OFFSET 0.00000 0.00000 0.00000
						}
					}
				}
			}
		}
	}
}
MOTION
Frames: 4
Frame Time: 0.050000
0.027797624423039114 0.042027217494856946 0.022561880075942745 -0.01837688773927498 0.013987788287355552 0.03718984864876171 -2.4543874567784223 -0.15945377267059757 -0.8846332371780317 -0.9905225020886522 3.715403748919049 0.3392118462341185 -1.3855360966686199 -2.2123499806538645 -1.326709849307965 0.8593156403649205 0.13631962437460146 -0.8999215335777268 1.2560900921722127 14.599232156926018 -3.603582417890808 0.42394430405746863 1.2189116686138668 -9.414847596791143 1.618077501879168 -13.140831138906343 -0.6945452285089438 -7.440346961899079 2.383706582001891 -15.720645332807985 68.34483595322261 -2.0901713637127433 13.220808123715011 22.505666096953743 3.0888681583569797 98.38515648978684 11.043421139237163 -0.3534881458236103 -1.985642022309294 4.523537079978568 -0.11168407709241723 -1.5834684679802784 0.017877029333945086 -0.02698831059462233 -56.25505463881455 -0.0321888748200942 0.02174556480723481 -56.23069137446025 -38.79277455835002 -0.04783932130080241 -0.0251864205147491 -0.02225276237412336 -0.003384464084994274 -0.006681572835045206 0.01135508694281365 0.045017922261579094 0.003295579473755576 -36.71077252878048 -0.00885219615127747 0.03915939558501792 0.04138308439903926 -0.04416907662394361 0.0272939109244843 0.03729358759158372 -0.02147629430819428 -0.02514439713012595 -19.71942627707853 0.0477779019251202 0.047708861586146296 0.029343343794490193 -0.02062194238325472 0.04877627468172981 -0.04553128684283248 -0.01082936432824857 -0.008709217322225911 24.00442983473866 -0.03771752258322705 0.03826316545788263 28.89377103071698 0.015544039150662412 -0.030765223081898496 28.876685996160763 0.040561038119941877 0.030402439525328232 7.295419772489308 1.7409972638674276 13.159435897727988 -68.41379868034964 15.16911314727333 -12.596775393038898 -22.544830668831946 1.9752859366022397 -100.65073419902299 -1.960729502521813 -1.7288719218493398 -1.7717559956534004 -0.5103836673585352 0.05380777408162324 -8.077391518989849 0.041443644854433116 -0.0013522988844986467 44.55009696772057 0.016745817226397317 0.028835302344976478 44.526145609257 12.477791249037649 0.012461191729939352 -0.028755943248656525 0.01525291923556101 0.018116310954732893 -0.028202487502024896 -0.02976346311682177 0.012989654121825792 -0.022027594612305065 11.071173073838303 -0.014889090178431224 0.031940889871331424 0.0026313886567024274 -0.017860833747692696 0.04812697609067586 0.020295973535184825 -0.027813772286105105 -0.021666651404082124 4.809262710882186 -0.03490514608891351 -0.04731151275444902 0.01114811371390539 0.03878638466266529 -0.01730915562383609 0.04224459173572229 -0.005735164856284292 -0.013097614701537924 -5.639486045506445 -0.005887228813411398 0.02595433231342414 -6.736156560637126 -0.018493972247830927 -0.025205435501563827 -6.749647126981713 0.012311732343908272 -0.00470497608647675 -0.026556928528748275 0.030524446811186774 0.03850487108870896 8.005454544434352 3.4578742357656296 -19.177915538673872 -0.039536410144005475 10.376362510139968 -0.01713529812703202 -5.607670250190533 -15.702431311848548 3.21215321193592 -0.018502394437846754 0.037938963799612556 0.03857231224996296 -0.047820089398949564 4.67915338474444 -0.00154376830408456 12.455892536226607 -8.240246656804775 6.909823270934985 -0.022500536358288904 46.36061272079928 0.0013744807269629475 -4.326564391959516 -14.775149261629386 -3.835164687460619 -0.0016201466736040229 -0.03511962351789045 -0.029324180102546914 0.015594933032092575 -10.789965498039969 0.008751717800699863 
0.036519047764334 0.012858956147681538 0.019261724320168684 0.005777413333225474 0.0019339918337587206 -0.01692431767105022 -2.556089656900137 -0.14511528678236377 -0.8303230576693453 -0.9260639278631791 3.6718089146981705 0.34428558418124183 -1.4015802267981694 -2.1535728961991456 -1.2197154669522596 0.7335153995216686 0.1712303374624247 -0.8749539115493504 1.1764004025842614 14.752008097006136 -3.450405145495099 0.37886892143927864 1.333664385150618 -9.045187404958003 1.5456289770058627 -12.965915161550392 -0.7411903877025444 -7.514518030442679 2.3975224445021865 -15.454538943224724 67.93286355039078 -2.301638781676111 15.22509398910449 21.947664526479283 2.9464665203574323 98.1156465629456 11.584832678844064 -0.36558918487731606 -2.222832322612509 4.5762147056158495 -0.08008966985987181 -1.567968395781539 0.020101246616831638 -0.019326765042848144 -56.23778027927499 -0.029104880447732927 -0.006100939279481213 -56.27634061880962 -38.74834786586625 -0.04822279130707629 0.0047873650898694305 0.033204228826000756 -0.014758448852259987 0.049087123129692684 -0.03470362106440109 -0.00601532262481012 -0.03307693683113336 -36.70300923676167 -0.02185458956073069 -0.005912852279005146 0.02027083075995613 -0.012154825677192014 -0.011290472188767204 -0.031521171184477184 -0.02951525042503216 0.019204328680764923 -19.75214456475722 0.03108493300521506 0.03101149292227587 0.030054164992276682 0.03640827562785727 -0.04059355059247218 -0.015300632844791372 -0.036041133625302674 0.018027191898512644 24.04767927413771 -0.03210567252618872 -0.029770112426480845 28.83683271773246 0.038113897581582526 0.008872908580204059 28.828710193527524 -0.04671947819285156 0.033469063586966934 7.320167820260731 1.7546454722256701 13.092397928311028 -68.06473628395281 15.677924564790823 -13.65575483473279 -21.384290951228518 1.3258647711842297 -99.91177941052452 -2.60025099611074 -1.947373509872005 -1.460627577896475 -0.43672778626562153 0.10656656192290076 -8.07968803059979 0.0474761290039969 0.005656993558037936 44.55044177307395 -0.03238183039128231 0.04097401560774441 44.59503791763345 12.509189366189538 -0.009407371942176829 0.03723268310172099 -0.016403236215608505 0.02330707623968724 -0.008980254930860675 -0.02565269728275656 -0.009037471115334124 -0.028413848519266087 11.092953268981097 -0.010784954739433918 0.03341224503220952 -0.0418028661181458 0.03941885063447948 -0.03988416328343132 0.0448768309218735 -0.04015243110391805 -0.04203853511982005 4.773063897803358 -0.012722668031877302 0.0019630363279308956 0.03622119819462244 -0.034984991262188556 -0.03768938295848773 -0.010585957062061278 -0.041928947240710265 -0.04913864444096601 -5.594909041324294 -0.028729361935053627 -0.04453937215494837 -6.681243611021007 0.021754486550287024 -0.042722592760780345 -6.761999433423134 -0.039546010598187506 0.03853210925249788 0.016160682024410514 0.016787993298201756 -0.04855086369064231 7.9984649886976245 3.4788419346573582 -19.220785957863434 -0.005928227806900707 10.363745386593413 0.00974602345938463 -5.6495455360164275 -15.648391496742951 3.1734885515872557 -0.033603057392969336 0.015471621942274198 -0.0003601226421000317 0.025919137529044803 4.668052123970783 0.016596113361642705 12.443465039945202 -8.232984848213707 6.8935235565772075 0.013576345307967811 46.408596017186866 0.02695605740780727 -4.306046227353558 -14.739278725090504 -3.7921571356629413 -0.015777539475755033 -0.02650808344484817 -0.0441777952653789 -0.014403898946412804 -10.778888464808436 -0.020011424517003083 
0.01343725130143169 -0.03164565891700561 0.022361355675630308 -0.031932226718057656 0.03937961328499828 0.01781919157484285 -2.6749456086066887 -0.2277353807391185 -0.8821146704891106 -0.9517134286846269 3.708623560319263 0.3875363514941307 -1.3959916191840898 -2.1755436695929897 -1.1960544450288164 0.6330988529170505 0.11527889528980748 -0.8511810541289337 1.174278440552137 14.831458465410424 -3.196888788000375 0.42102083172707094 1.4302873903247435 -8.508529443861956 1.512417195930053 -12.705816465683537 -0.6484892428439358 -7.626272482911603 2.386662971989059 -15.259871640798147 67.9544721267067 -1.8256950250596944 17.047655922940596 21.42228889358485 3.037737480660851 97.70299600142697 12.278569638370493 -0.4265010660613954 -2.504747309749924 4.535569706625217 -0.15173876076989012 -1.5851863744115853 0.019815076687772146 -0.04114559451721525 -56.27059233192739 -0.006831174901927753 -0.023560596516073857 -56.23920951182649 -38.72695805498278 -0.008535724076594352 -0.02808990678562167 0.029007168510372203 -0.022230462004939378 0.019932405959301378 0.031158298450834104 0.04254108968732941 0.005512419906220673 -36.737430353538024 -0.03831432057592747 -0.014601604792613035 -0.03967094988253778 -0.02350251735654757 0.037149558732016745 -0.03236380875276766 -0.007171678178363631 -0.0295285739136505 -19.786608182230523 0.019418466277253868 0.024309872316855278 -0.00470759985589025 -0.0037366115669027057 -0.037401109913292534 0.005295633909828643 -0.040853422673113315 -0.032213805788523904 24.05059334692605 0.031168033299731827 0.01551264204737341 28.817962558842588 -0.038697468941475806 0.019680678682404324 28.881322233183617 -0.008480830564906332 0.004644666921130118 7.461147579484697 1.7678941337879595 12.916901976372415 -67.88534551769818 16.280907900660875 -14.873592644636197 -21.55811637287263 1.507160006412067 -99.39826176816455 -3.4634669983184923 -2.193942578852523 -1.029970010287059 -0.5098027346428066 0.07960502558647327 -8.162393169179817 0.005271160985835902 0.0412275559920864 44.586076387676755 0.02901281289645902 0.00591819151721496 44.563665843131375 12.474001096742752 0.012952012320515212 0.03161985819745198 -0.043442728226123835 0.002431159416004917 0.006015429511478229 0.031785390258023793 0.02352964123189997 -0.030009525820376255 11.11874222402989 0.022820529472219336 0.024920689644252415 0.009432217005796637 -0.01789836670180303 0.01668991652186863 0.002829027122674997 0.03621996776014502 -0.022076586631071 4.730649700343426 0.0073365107877381664 -0.04830803072066355 0.042983343669398294 0.038755387693792914 0.025188414707704387 -0.01990138970885072 0.04833957846037645 -0.018285953389373503 -5.582480464978882 -0.0398491372566525 -0.046268686122917374 -6.742039475474081 -0.048701639867003016 0.017279287414439647 -6.67149491675107 0.010412651262412797 1.3190452265337476e-06 0.041661730336170016 -0.039390069742165294 0.04757421908044553 8.07693538221074 3.50222552832578 -19.26032612189052 0.02658337023022306 10.396818263781228 0.022015981050515207 -5.622614753069943 -15.627046952272927 3.224727634760663 -0.04620833410012636 -0.002390028578022465 -0.041515726597252535 0.027410548531781702 4.713546011961306 -0.020222349546599995 12.445909443014775 -8.201985023442983 6.924469234386701 -0.028681690575281235 46.38053405265098 -0.04174911717821337 -4.301964164275367 -14.794270112715337 -3.8539400987356913 0.03252505545606124 -0.04433890840108413 -0.027610047440346643 0.01626113286289807 -10.753841016105854 0.011451976083186054 
0.028287555025269053 -0.037447977667465965 -0.028361824292398797 0.03417003324296056 -0.04537282547743623 -0.009962562781622475 -2.703000162684554 -0.20058890779871563 -0.8053406063223362 -0.9264497594819453 3.675495065112734 0.41831019792659957 -1.3770694613285621 -2.2575198661257 -1.1764175203748073 0.5485700826439809 0.16415446670492223 -0.8391507497725647 1.1157580593442833 14.899723280674179 -2.9198424493044626 0.43137208645332437 1.5906662428919194 -7.84411227201659 1.4363628630377399 -12.442270681341872 -0.6441829271833295 -7.762165607599741 2.468212610063498 -15.035213907675379 68.45630288405505 -1.0320499836178736 18.620134155542885 21.701982814850734 3.229626060776974 97.1554990995005 12.986555983189369 -0.4180578882135654 -2.7732728504877904 4.555957794488822 -0.12033323503990694 -1.5759192801230208 0.02881837654515384 0.038287911714858125 -56.230968763786585 -0.04023632059471564 0.0396914055032376 -56.18983798434356 -38.79203352721654 0.024531577994852005 -0.04543821395157321 0.03910534619087962 -0.02578154731535477 -0.021080863043116002 0.032762394940924484 -0.013916904889811212 -0.034224284361102905 -36.71344159938834 0.034843051525378255 0.01659652040528054 -0.01247573584333307 -0.012648979380217777 -0.030167136815830185 -0.03047827302207997 -0.023588616231524598 -0.047517104507763884 -19.73713860815743 0.03160187476652417 -0.03300437708853372 -0.049506730201374305 -0.04872244318331097 -0.00890021890105577 -0.04477032493846222 -0.019655099151808204 0.04255343995943757 24.087189148925546 -0.0157310597543979 -0.00073383880061592 28.816445844183374 -0.003512238229064393 -0.021570028395448644 28.898080078807816 -0.02899918097802297 0.015068414373427264 7.706065832022766 1.8517603262457532 12.788531388141966 -68.04617784391276 16.214875130375862 -16.254303033947295 -23.04580984661811 2.2819738406210126 -99.22986959436915 -4.2059576615857255 -2.2864436443882528 -0.8383192489694008 -0.4480112991232807 0.037327816202940955 -8.171952731377036 0.01947026387893445 -0.020109593208950848 44.55652939039929 -0.033560171214310555 -0.016556845459125866 44.57011467509184 12.423828047802576 -0.022764524039510004 -0.04380854516929396 0.001436292318910638 0.03480212087095911 0.03850925685045681 0.018233847877964497 0.014155995059030778 0.03475794786315242 11.130691270444599 -0.0046805942602353955 -0.02605424782699509 0.007430300524214819 0.03890528723181265 0.03913080628156969 0.009697063780031316 0.029044931449703448 0.004023519539879416 4.82227383086047 -0.0338041100928443 -0.016764094754065758 0.02707629531230581 -0.008188216048179129 0.011449830681048656 0.03197263578270464 0.04905366738770753 0.026494633132043525 -5.639379152408802 0.04187593919673608 0.005551746501484879 -6.692809421324572 -0.0016087208066000705 -0.02586872587679773 -6.735337537267181 0.01730207555110178 0.02169943167084418 -0.004318629116723706 -0.005014868500121905 0.003933806893274349 8.046791145167742 3.541153643041159 -19.218029134821993 -0.011037236549371748 10.401209452220684 -0.009347045544251316 -5.651603716340217 -15.617880678091314 3.1644478209936966 -0.011497741835669343 -0.023405169030332563 -0.02987003186326799 0.007155688719108498 4.7360409916424935 -0.01462694086929409 12.443441156455561 -8.27939443802793 6.878127580385582 -0.009314361149762775 46.40263781399538 -0.004447544677231418 -4.342034731253801 -14.769919324919448 -3.8199277721089144 -0.02456497872056956 0.002183114104117462 -0.044620188505536784 0.004721171345764117 -10.72100769640048 -0.011049556439133553 
